<svg width="17" height="17" viewBox="0 0 17 17" fill="none" xmlns="http://www.w3.org/2000/svg">
<path d="M14.3279 14.6871C15.1727 13.8933 15.8457 12.9347 16.3053 11.8705C16.7649 10.8063 17.0013 9.65919 17 8.5C17 3.80538 13.1946 0 8.5 0C3.80539 0 5.6747e-06 3.80538 5.6747e-06 8.5C-0.00133558 9.65919 0.2351 10.8063 0.694695 11.8705C1.15429 12.9347 1.82728 13.8933 2.67206 14.6871C4.24733 16.1752 6.33302 17.0029 8.5 17C10.667 17.0029 12.7527 16.1752 14.3279 14.6871ZM3.39564 13.5669C4.00771 12.8011 4.78442 12.1831 5.6681 11.7587C6.55177 11.3343 7.5197 11.1144 8.5 11.1154C9.4803 11.1144 10.4482 11.3343 11.3319 11.7587C12.2156 12.1831 12.9923 12.8011 13.6044 13.5669C12.9366 14.2414 12.1415 14.7766 11.2653 15.1414C10.3891 15.5063 9.44915 15.6935 8.5 15.6923C7.55085 15.6935 6.61091 15.5063 5.73469 15.1414C4.85847 14.7766 4.06342 14.2414 3.39564 13.5669ZM11.7692 5.88461C11.7692 6.75167 11.4248 7.58321 10.8117 8.19631C10.1986 8.80941 9.36705 9.15384 8.5 9.15384C7.63295 9.15384 6.80141 8.80941 6.18831 8.19631C5.57521 7.58321 5.23077 6.75167 5.23077 5.88461C5.23077 5.01756 5.57521 4.18602 6.18831 3.57292C6.80141 2.95982 7.63295 2.61538 8.5 2.61538C9.36705 2.61538 10.1986 2.95982 10.8117 3.57292C11.4248 4.18602 11.7692 5.01756 11.7692 5.88461Z" fill="#363636"/>
</svg>
