<svg width="70" height="18" viewBox="0 0 70 18" fill="none" xmlns="http://www.w3.org/2000/svg">
<path d="M6.26709 1.02588H9.05615L15.3315 14H12.5674L11.5298 11.8169H3.95117L2.94678 14H0.174316L6.26709 1.02588ZM10.4922 9.65039L7.68652 3.75684L4.95557 9.65039H10.4922ZM17.4316 10.9951C18.0957 11.3936 18.8262 11.6868 19.623 11.875C20.4199 12.0632 21.2362 12.1572 22.0718 12.1572C22.6362 12.1572 23.1066 12.1185 23.4829 12.041C23.8592 11.9635 24.1608 11.8639 24.3877 11.7422C24.6146 11.6204 24.7751 11.4821 24.8691 11.3271C24.9632 11.1722 25.0103 11.0145 25.0103 10.854C25.0103 10.6216 24.9079 10.4224 24.7031 10.2563C24.5039 10.0903 24.1719 10.0073 23.707 10.0073C23.4912 10.0073 23.2588 10.0212 23.0098 10.0488C22.7607 10.0765 22.4979 10.1069 22.2212 10.1401C21.95 10.1678 21.665 10.1955 21.3662 10.2231C21.0729 10.2508 20.7741 10.2646 20.4697 10.2646C19.8057 10.2646 19.2384 10.1927 18.7681 10.0488C18.3032 9.90495 17.9242 9.7085 17.6309 9.45947C17.3376 9.21045 17.1245 8.91715 16.9917 8.57959C16.8589 8.23649 16.7925 7.86849 16.7925 7.47559C16.7925 6.97754 16.9087 6.51823 17.1411 6.09766C17.3735 5.67708 17.7056 5.31462 18.1372 5.01025C18.5688 4.70036 19.089 4.45964 19.6978 4.28809C20.312 4.11654 20.9954 4.03076 21.748 4.03076C22.141 4.03076 22.5505 4.05566 22.9766 4.10547C23.4082 4.14974 23.8315 4.21061 24.2466 4.28809C24.6616 4.36556 25.0601 4.45687 25.4419 4.56201C25.8237 4.66162 26.1613 4.76953 26.4546 4.88574L25.6826 6.79492C25.0573 6.5625 24.432 6.37988 23.8066 6.24707C23.1868 6.10872 22.5477 6.03955 21.8892 6.03955C21.4299 6.03955 21.0397 6.07552 20.7188 6.14746C20.4033 6.21387 20.146 6.30518 19.9468 6.42139C19.7476 6.53206 19.6009 6.66211 19.5068 6.81152C19.4183 6.9554 19.374 7.10758 19.374 7.26807C19.374 7.38428 19.3962 7.48942 19.4404 7.5835C19.4902 7.67757 19.5677 7.76058 19.6729 7.83252C19.7835 7.89893 19.9246 7.9515 20.0962 7.99023C20.2733 8.02344 20.4891 8.04004 20.7437 8.04004C20.9761 8.04004 21.2223 8.0262 21.4824 7.99854C21.7425 7.97087 22.0137 7.9432 22.2959 7.91553C22.5781 7.88232 22.8687 7.85189 23.1675 7.82422C23.4718 7.79655 23.7817 7.78271 24.0972 7.78271C24.6838 7.78271 25.1956 7.85189 25.6328 7.99023C26.0755 8.12858 26.4408 8.32227 26.7285 8.57129C27.0163 8.82031 27.2321 9.11361 27.376 9.45117C27.5199 9.78874 27.5918 10.1567 27.5918 10.5552C27.5918 11.0698 27.4728 11.5485 27.2349 11.9912C26.9969 12.4339 26.6427 12.8185 26.1724 13.145C25.702 13.466 25.1154 13.7178 24.4126 13.9004C23.7153 14.083 22.9074 14.1743 21.9888 14.1743C21.4243 14.1743 20.8792 14.1383 20.3535 14.0664C19.8278 14 19.327 13.9087 18.8511 13.7925C18.3752 13.6707 17.9269 13.5296 17.5063 13.3691C17.0913 13.2087 16.7122 13.0371 16.3691 12.8545L17.4316 10.9951ZM32.1987 18.001H29.7417V4.20508H32.1987V5.12646C32.4146 4.97705 32.6691 4.83594 32.9624 4.70312C33.2557 4.57031 33.5711 4.4541 33.9087 4.35449C34.2463 4.25488 34.5949 4.17741 34.9546 4.12207C35.3143 4.0612 35.674 4.03076 36.0337 4.03076C36.8638 4.03076 37.6247 4.15251 38.3164 4.396C39.0137 4.63949 39.6113 4.98258 40.1094 5.42529C40.6074 5.868 40.9948 6.39925 41.2715 7.01904C41.5537 7.6333 41.6948 8.31396 41.6948 9.06104C41.6948 9.84131 41.5482 10.5469 41.2549 11.1777C40.9616 11.8031 40.5549 12.3398 40.0347 12.7881C39.52 13.2308 38.9058 13.5739 38.1919 13.8174C37.4836 14.0553 36.7144 14.1743 35.8843 14.1743C35.5301 14.1743 35.1787 14.1522 34.8301 14.1079C34.487 14.0636 34.1549 14.0028 33.834 13.9253C33.5186 13.8478 33.2197 13.7565 32.9375 13.6514C32.6608 13.5407 32.4146 13.4217 32.1987 13.2944V18.001ZM32.1987 10.9204C32.4478 11.1196 32.7106 11.2884 32.9873 11.4268C33.264 11.5651 33.5462 11.6785 33.834 11.7671C34.1217 11.8556 34.4123 11.922 34.7056 11.9663C34.9989 12.005 35.2839 12.0244 35.5605 12.0244C36.125 12.0244 36.6258 11.9497 37.063 11.8003C37.5057 11.6453 37.8765 11.4351 38.1753 11.1694C38.4797 10.9038 38.7121 10.5911 38.8726 10.2314C39.033 9.87174 39.1133 9.48161 39.1133 9.06104C39.1133 8.66813 39.033 8.29736 38.8726 7.94873C38.7176 7.6001 38.4907 7.29574 38.1919 7.03564C37.8986 6.77002 37.5417 6.5625 37.1211 6.41309C36.7061 6.25814 36.2384 6.18066 35.7183 6.18066C35.3862 6.18066 35.0542 6.21387 34.7222 6.28027C34.3901 6.34115 34.0692 6.42969 33.7593 6.5459C33.4549 6.66211 33.1672 6.80322 32.896 6.96924C32.6304 7.13525 32.3979 7.32064 32.1987 7.52539V10.9204ZM45.314 2.86865C45.0705 2.86865 44.8491 2.83545 44.6499 2.76904C44.4562 2.6971 44.2902 2.60303 44.1519 2.48682C44.0135 2.36507 43.9056 2.22673 43.8281 2.07178C43.7562 1.9113 43.7202 1.74251 43.7202 1.56543C43.7202 1.38281 43.7562 1.21403 43.8281 1.05908C43.9056 0.8986 44.0135 0.760254 44.1519 0.644043C44.2902 0.527832 44.4562 0.436523 44.6499 0.370117C44.8491 0.298177 45.0705 0.262207 45.314 0.262207C45.563 0.262207 45.7843 0.298177 45.978 0.370117C46.1772 0.436523 46.346 0.527832 46.4844 0.644043C46.6227 0.760254 46.7279 0.8986 46.7998 1.05908C46.8773 1.21403 46.916 1.38281 46.916 1.56543C46.916 1.74251 46.8773 1.9113 46.7998 2.07178C46.7279 2.22673 46.6227 2.36507 46.4844 2.48682C46.346 2.60303 46.1772 2.6971 45.978 2.76904C45.7843 2.83545 45.563 2.86865 45.314 2.86865ZM44.0854 4.20508H46.5425V14H44.0854V4.20508ZM49.6968 4.20508H52.1538V5.61621C52.6961 5.21224 53.2689 4.86361 53.8721 4.57031C54.4753 4.27702 55.0757 4.0529 55.6733 3.89795L56.3955 6.14746C55.4492 6.24154 54.6164 6.45459 53.897 6.78662C53.1831 7.11312 52.6021 7.5752 52.1538 8.17285V14H49.6968V4.20508ZM57.7651 9.06934C57.7651 8.40527 57.9007 7.77165 58.1719 7.16846C58.443 6.55973 58.8332 6.02295 59.3423 5.55811C59.8514 5.09326 60.474 4.72249 61.21 4.4458C61.9515 4.16911 62.7926 4.03076 63.7334 4.03076C64.6686 4.03076 65.5098 4.17188 66.2568 4.4541C67.0094 4.73079 67.6458 5.11263 68.166 5.59961C68.6917 6.08659 69.0929 6.65934 69.3696 7.31787C69.6519 7.9764 69.793 8.68197 69.793 9.43457C69.793 9.52865 69.7902 9.63102 69.7847 9.7417C69.7847 9.84684 69.7791 9.94368 69.7681 10.0322H60.5044C60.6095 10.3255 60.7783 10.5939 61.0107 10.8374C61.2487 11.0809 61.5448 11.2912 61.8989 11.4683C62.2531 11.6453 62.6626 11.7837 63.1274 11.8833C63.5923 11.9774 64.1069 12.0244 64.6714 12.0244C65.2358 12.0244 65.7975 11.9663 66.3564 11.8501C66.9154 11.7284 67.4494 11.5762 67.9585 11.3936L68.7886 13.2695C68.4676 13.4189 68.1411 13.5518 67.8091 13.668C67.4826 13.7786 67.1395 13.8727 66.7798 13.9502C66.4256 14.0221 66.0521 14.0775 65.6592 14.1162C65.2718 14.1549 64.8623 14.1743 64.4307 14.1743C63.3294 14.1743 62.3638 14.0415 61.5337 13.7759C60.7036 13.5103 60.0091 13.1478 59.4502 12.6885C58.8913 12.2292 58.4707 11.6896 58.1885 11.0698C57.9062 10.45 57.7651 9.7832 57.7651 9.06934ZM67.1865 8.11475C67.098 7.84359 66.9596 7.5918 66.7715 7.35938C66.5889 7.12142 66.3592 6.91667 66.0825 6.74512C65.8058 6.56803 65.4849 6.42969 65.1196 6.33008C64.7544 6.23047 64.3532 6.18066 63.916 6.18066C63.4512 6.18066 63.0278 6.23324 62.646 6.33838C62.2642 6.44352 61.9294 6.58464 61.6416 6.76172C61.3538 6.9388 61.1131 7.14355 60.9194 7.37598C60.7313 7.6084 60.5929 7.85465 60.5044 8.11475H67.1865Z" fill="#CACACA"/>
</svg>
