<svg width="19" height="19" viewBox="0 0 19 19" fill="none" xmlns="http://www.w3.org/2000/svg">
<path d="M13.1736 2.70891C13.1958 2.72077 13.218 2.73262 13.2409 2.74483C14.2051 3.26256 15.0526 4.01547 15.697 4.89837C15.7259 4.93759 15.7548 4.97682 15.7846 5.01723C16.0029 5.32292 16.1905 5.64219 16.365 5.97454C16.3778 5.99882 16.3905 6.02309 16.4037 6.04811C17.3375 7.85317 17.4417 10.0026 16.8312 11.9238C16.4382 13.1205 15.7681 14.1431 14.8806 15.0292C14.8534 15.0577 14.8263 15.0862 14.7983 15.1155C14.5602 15.3621 14.3045 15.5717 14.0271 15.7714C14.0066 15.7863 13.9861 15.8012 13.965 15.8166C12.3472 16.9822 10.2873 17.4484 8.31905 17.1621C6.71972 16.8998 5.28807 16.1855 4.1189 15.0663C4.08812 15.0374 4.08812 15.0374 4.05671 15.0078C2.58941 13.6225 1.80568 11.6483 1.7439 9.64837C1.71529 7.54514 2.52185 5.59239 3.97046 4.08196C4.00371 4.04675 4.03696 4.01155 4.07121 3.97527C6.40545 1.5622 10.2705 1.13948 13.1736 2.70891ZM13.4407 5.43628C13.4135 5.44717 13.3863 5.45806 13.3582 5.46927C13.3269 5.48163 13.2956 5.49398 13.2634 5.50672C13.2289 5.52066 13.1944 5.53461 13.1589 5.54898C13.1226 5.5634 13.0863 5.57783 13.0489 5.59269C12.9275 5.64104 12.8062 5.68979 12.6849 5.73855C12.5994 5.77271 12.5138 5.80685 12.4282 5.84097C12.2472 5.91318 12.0663 5.98557 11.8855 6.05813C11.6151 6.16658 11.3446 6.27461 11.0741 6.3826C10.6784 6.54057 10.283 6.69929 9.88773 6.85825C9.62882 6.96223 9.36952 7.06515 9.10984 7.1672C8.94603 7.23164 8.7824 7.29653 8.61879 7.36149C8.54218 7.39177 8.46549 7.42184 8.38871 7.45168C8.28355 7.49258 8.1787 7.5342 8.0739 7.576C8.04303 7.58779 8.01215 7.59957 7.98034 7.61171C7.80942 7.68089 7.71917 7.72755 7.64429 7.90423C7.63353 7.92905 7.62277 7.95388 7.61168 7.97945C7.57163 8.07354 7.53359 8.16829 7.49577 8.26329C7.48126 8.29936 7.46676 8.33544 7.45181 8.3726C7.40367 8.49242 7.35576 8.61232 7.30784 8.73223C7.27384 8.81699 7.23982 8.90175 7.20579 8.98651C7.11568 9.21105 7.02576 9.43566 6.93587 9.6603C6.84706 9.88216 6.75806 10.104 6.66908 10.3258C6.56423 10.5871 6.45943 10.8485 6.35487 11.11C6.20251 11.4911 6.05 11.872 5.89586 12.2523C5.83215 12.4095 5.76864 12.5668 5.70515 12.7241C5.67541 12.7976 5.64556 12.8711 5.61561 12.9446C5.57477 13.0447 5.53427 13.145 5.49384 13.2454C5.48168 13.2749 5.46953 13.3044 5.457 13.3349C5.42934 13.404 5.40465 13.4744 5.38062 13.5449C5.39286 13.5693 5.40511 13.5938 5.41773 13.6191C5.43648 13.6115 5.45524 13.604 5.47456 13.5962C5.94128 13.4086 6.408 13.221 6.87474 13.0334C7.1442 12.9251 7.41365 12.8167 7.68309 12.7084C7.77041 12.6733 7.85773 12.6382 7.94507 12.6032C8.16428 12.5153 8.38325 12.4268 8.60179 12.3372C9.03699 12.1595 9.47236 11.9921 9.91815 11.8428C10.8367 11.5812 10.8367 11.5812 11.4879 10.949C11.5435 10.7907 11.5858 10.6314 11.6219 10.4678C11.7085 10.0896 11.8705 9.73656 12.0181 9.37906C12.1076 9.16079 12.1942 8.94136 12.2811 8.72201C12.3168 8.63209 12.3525 8.54218 12.3883 8.45227C12.415 8.38507 12.415 8.38507 12.4422 8.3165C12.5325 8.08916 12.6229 7.86185 12.7133 7.63453C12.8154 7.37794 12.9174 7.12135 13.0194 6.86473C13.2063 6.39458 13.3937 5.92465 13.5818 5.45501C13.5106 5.40906 13.5106 5.40906 13.4407 5.43628Z" fill="#363636"/>
<path d="M9.92432 8.68371C10.1409 8.80805 10.2611 8.97662 10.3673 9.1986C10.4293 9.50855 10.4081 9.78618 10.2326 10.0534C10.065 10.2686 9.86423 10.3819 9.59497 10.4232C9.30884 10.4424 9.08453 10.3788 8.86134 10.1971C8.66374 10.0008 8.56901 9.7883 8.56055 9.51171C8.5631 9.26425 8.65751 9.08732 8.78088 8.87854C9.09786 8.57825 9.52333 8.50643 9.92432 8.68371Z" fill="#363636"/>
</svg>
