<svg width="16" height="16" viewBox="0 0 16 16" fill="none" xmlns="http://www.w3.org/2000/svg">
<g clip-path="url(#clip0_196_178)">
<path d="M5 2C7.97 2 10.94 2 14 2C14 5.3 14 8.6 14 12C14.66 12 15.32 12 16 12C16 12.66 16 13.32 16 14C15.34 14 14.68 14 14 14C14 14.66 14 15.32 14 16C13.34 16 12.68 16 12 16C12 12.04 12 8.08 12 4C9.69 4 7.38 4 5 4C5 3.34 5 2.68 5 2Z" fill="#363636"/>
<path d="M2 0C2.66 0 3.32 0 4 0C4 3.96 4 7.92 4 12C6.31 12 8.62 12 11 12C11 12.66 11 13.32 11 14C8.03 14 5.06 14 2 14C2 10.7 2 7.4 2 4C1.34 4 0.68 4 0 4C0 3.34 0 2.68 0 2C0.66 2 1.32 2 2 2C2 1.34 2 0.68 2 0Z" fill="#363636"/>
</g>
<defs>
<clipPath id="clip0_196_178">
<rect width="16" height="16" fill="white"/>
</clipPath>
</defs>
</svg>
