<svg width="22" height="22" viewBox="0 0 22 22" fill="none" xmlns="http://www.w3.org/2000/svg">
<mask id="path-1-inside-1_354_165" fill="white">
<path fill-rule="evenodd" clip-rule="evenodd" d="M4.42673 18.9816C4.72889 15.6167 7.55647 12.9795 11 12.9795C14.4435 12.9795 17.2711 15.6167 17.5733 18.9816C15.7865 20.4547 13.4966 21.3395 11 21.3395C8.50344 21.3395 6.21352 20.4547 4.42673 18.9816Z"/>
</mask>
<path fill-rule="evenodd" clip-rule="evenodd" d="M4.42673 18.9816C4.72889 15.6167 7.55647 12.9795 11 12.9795C14.4435 12.9795 17.2711 15.6167 17.5733 18.9816C15.7865 20.4547 13.4966 21.3395 11 21.3395C8.50344 21.3395 6.21352 20.4547 4.42673 18.9816Z" fill="#5B5B5B"/>
<path d="M4.42673 18.9816L3.43073 18.8921L3.38355 19.4176L3.7906 19.7532L4.42673 18.9816ZM17.5733 18.9816L18.2094 19.7532L18.6165 19.4176L18.5693 18.8921L17.5733 18.9816ZM5.42272 19.071C5.679 16.217 8.07877 13.9795 11 13.9795V11.9795C7.03418 11.9795 3.77877 15.0164 3.43073 18.8921L5.42272 19.071ZM11 13.9795C13.9212 13.9795 16.321 16.217 16.5773 19.071L18.5693 18.8921C18.2212 15.0164 14.9658 11.9795 11 11.9795V13.9795ZM16.9372 18.21C15.3229 19.5409 13.256 20.3395 11 20.3395V22.3395C13.7371 22.3395 16.2501 21.3685 18.2094 19.7532L16.9372 18.21ZM11 20.3395C8.74399 20.3395 6.67716 19.5409 5.06286 18.21L3.7906 19.7532C5.74988 21.3685 8.26288 22.3395 11 22.3395V20.3395Z" fill="#5B5B5B" mask="url(#path-1-inside-1_354_165)"/>
<circle cx="11" cy="11" r="10.5" stroke="#5B5B5B"/>
<circle cx="11" cy="8.13969" r="3.46" fill="#5B5B5B" stroke="#5B5B5B"/>
</svg>
