<svg width="15" height="15" viewBox="0 0 15 15" fill="none" xmlns="http://www.w3.org/2000/svg">
<g clip-path="url(#clip0_196_190)">
<path d="M7.47968 -0.0109703C7.52405 -0.0109464 7.52405 -0.0109464 7.56931 -0.010922C8.05316 -0.00972724 8.51904 0.0174494 8.99397 0.117204C9.02371 0.123326 9.05346 0.129449 9.0841 0.135757C10.1723 0.366975 11.1937 0.838758 12.0701 1.52345C12.0986 1.5457 12.1271 1.56794 12.1564 1.59086C12.607 1.95222 13.0334 2.35654 13.3885 2.81252C13.4221 2.85364 13.4221 2.85364 13.4564 2.8956C14.4709 4.16252 15.0127 5.78847 15.0091 7.40414C15.009 7.49026 15.0097 7.57635 15.0104 7.66246C15.0117 8.05426 14.9764 8.43207 14.9119 8.81837C14.9037 8.86834 14.9037 8.86834 14.8952 8.91932C14.6894 10.0652 14.1919 11.1545 13.4764 12.0703C13.4541 12.0988 13.4319 12.1273 13.409 12.1566C13.0476 12.6072 12.6433 13.0335 12.1873 13.3887C12.1599 13.4111 12.1325 13.4335 12.1042 13.4566C11.1681 14.2062 10.0207 14.6898 8.84748 14.9121C8.82377 14.9169 8.80006 14.9217 8.77563 14.9267C7.89551 15.0987 6.88059 15.0666 6.00569 14.8828C5.96107 14.8736 5.96107 14.8736 5.91555 14.8643C4.83067 14.6338 3.80169 14.1629 2.92951 13.4766C2.90111 13.4544 2.87271 13.4322 2.84345 13.4093C2.39269 13.0482 1.96629 12.6435 1.61116 12.1875C1.57756 12.1464 1.57756 12.1464 1.54329 12.1044C0.793676 11.1683 0.309993 10.0209 0.0877176 8.84767C0.0829213 8.82396 0.0781251 8.80025 0.0731836 8.77582C-0.0870587 7.9559 -0.0835161 6.96991 0.0877176 6.15236C0.0935382 6.1238 0.0993588 6.09524 0.105356 6.06581C0.344715 4.92155 0.802498 3.85405 1.52326 2.9297C1.54298 2.9038 1.56269 2.87789 1.583 2.8512C1.93753 2.39455 2.35642 1.96608 2.81233 1.61134C2.85447 1.57724 2.85447 1.57724 2.89747 1.54245C4.19711 0.508651 5.8292 -0.0143279 7.47968 -0.0109703ZM6.29865 0.99611C6.2699 1.00193 6.24115 1.00775 6.21152 1.01375C5.61772 1.13736 5.04627 1.31998 4.51162 1.60896C4.4488 1.64288 4.38559 1.67601 4.32237 1.70919C4.02421 1.86795 3.75167 2.04731 3.48615 2.25588C3.4576 2.27819 3.42905 2.30051 3.39964 2.32351C3.19545 2.48715 3.00279 2.66259 2.81233 2.84181C2.79303 2.85986 2.77373 2.87792 2.75385 2.89652C2.60296 3.04217 2.47389 3.2052 2.34358 3.36916C2.32062 3.39714 2.29765 3.42512 2.274 3.45396C1.45238 4.47967 0.910202 5.87041 0.902079 7.19C0.901872 7.21259 0.901666 7.23518 0.901452 7.25846C0.898013 7.74485 0.897224 8.22278 0.995921 8.70119C1.00465 8.74432 1.00465 8.74432 1.01356 8.78832C1.13717 9.38212 1.31979 9.95357 1.60877 10.4882C1.64269 10.551 1.67582 10.6143 1.709 10.6775C1.86776 10.9756 2.04712 11.2482 2.25569 11.5137C2.27801 11.5422 2.30033 11.5708 2.32332 11.6002C2.48696 11.8044 2.6624 11.9971 2.84162 12.1875C2.85968 12.2068 2.87773 12.2261 2.89633 12.246C3.04198 12.3969 3.20501 12.526 3.36897 12.6563C3.39695 12.6792 3.42494 12.7022 3.45377 12.7258C4.47948 13.5475 5.87022 14.0896 7.18981 14.0978C7.22369 14.0981 7.22369 14.0981 7.25827 14.0984C7.74467 14.1018 8.22259 14.1026 8.701 14.0039C8.72975 13.9981 8.7585 13.9923 8.78813 13.9863C9.38193 13.8627 9.95339 13.6801 10.488 13.3911C10.5509 13.3571 10.6141 13.324 10.6773 13.2908C10.9754 13.1321 11.248 12.9527 11.5135 12.7442C11.542 12.7218 11.5706 12.6995 11.6 12.6765C11.8042 12.5129 11.9969 12.3374 12.1873 12.1582C12.2066 12.1402 12.2259 12.1221 12.2458 12.1035C12.3967 11.9579 12.5258 11.7948 12.6561 11.6309C12.6905 11.5889 12.6905 11.5889 12.7257 11.5461C13.5473 10.5204 14.0894 9.12963 14.0976 7.81004C14.0979 7.77615 14.0979 7.77615 14.0982 7.74157C14.1016 7.25518 14.1024 6.77725 14.0037 6.29884C13.995 6.25571 13.995 6.25571 13.9861 6.21171C13.8625 5.61791 13.6799 5.04646 13.3909 4.51181C13.357 4.44899 13.3238 4.38578 13.2907 4.32256C13.1319 4.0244 12.9525 3.75186 12.744 3.48634C12.7105 3.44352 12.7105 3.44352 12.6763 3.39983C12.5127 3.19564 12.3373 3.00298 12.158 2.81252C12.14 2.79322 12.1219 2.77392 12.1033 2.75404C11.9577 2.60315 11.7946 2.47408 11.6307 2.34377C11.5887 2.30932 11.5887 2.30932 11.5459 2.27419C10.6459 1.55324 9.49163 1.07759 8.34944 0.937516C8.32931 0.934797 8.30919 0.932078 8.28845 0.929276C7.64433 0.852086 6.93316 0.865211 6.29865 0.99611Z" fill="#363636"/>
<path d="M7.70632 4.6492C7.83475 4.71479 7.90125 4.797 7.96839 4.9218C7.98467 5.00987 7.98423 5.09596 7.98327 5.18533C7.98345 5.21156 7.98363 5.23778 7.98382 5.2648C7.98429 5.35252 7.98392 5.44022 7.98355 5.52793C7.98371 5.59089 7.98392 5.65384 7.98417 5.71679C7.98471 5.88767 7.9845 6.05854 7.98413 6.22941C7.98383 6.40821 7.98411 6.58702 7.98429 6.76582C7.98451 7.06609 7.98422 7.36635 7.98367 7.66662C7.98303 8.0138 7.98324 8.36098 7.98388 8.70816C7.98441 9.00621 7.98449 9.30426 7.98418 9.6023C7.984 9.78033 7.98397 9.95835 7.98436 10.1364C7.9847 10.3037 7.98446 10.4711 7.98379 10.6385C7.98363 10.6999 7.98368 10.7613 7.98393 10.8228C7.98425 10.9066 7.98385 10.9904 7.98327 11.0743C7.98353 11.0986 7.98379 11.1229 7.98406 11.148C7.98149 11.3381 7.91806 11.4408 7.78894 11.5813C7.66635 11.6533 7.55277 11.6654 7.41175 11.6601C7.23871 11.6119 7.162 11.5372 7.06019 11.3964C7.01216 11.3004 7.02655 11.1939 7.02658 11.0884C7.02647 11.0622 7.02636 11.0361 7.02625 11.0092C7.02593 10.9211 7.02581 10.8331 7.0257 10.745C7.02552 10.682 7.02532 10.6191 7.02512 10.5562C7.02461 10.3848 7.0243 10.2134 7.02406 10.0421C7.02391 9.93509 7.02373 9.82809 7.02355 9.7211C7.02299 9.38653 7.02257 9.05197 7.02233 8.7174C7.02204 8.33083 7.02127 7.94427 7.02009 7.5577C7.0192 7.25916 7.01877 6.96062 7.01867 6.66207C7.0186 6.48365 7.01834 6.30523 7.0176 6.12681C7.01692 5.95897 7.0168 5.79113 7.0171 5.62328C7.01711 5.56166 7.01693 5.50003 7.01652 5.43841C7.01601 5.3543 7.01621 5.27023 7.0166 5.18612C7.01628 5.16171 7.01596 5.13729 7.01562 5.11214C7.01735 4.95702 7.04511 4.86894 7.14808 4.74602C7.31868 4.61636 7.49868 4.57893 7.70632 4.6492Z" fill="#363636"/>
<path d="M7.76811 3.40632C7.88549 3.50377 7.95928 3.58832 7.98005 3.74335C7.98383 3.91659 7.98339 4.04546 7.86584 4.17971C7.73158 4.30151 7.60188 4.32301 7.42616 4.31693C7.27481 4.29558 7.18402 4.22561 7.07746 4.11631C7.00983 3.96483 7.00947 3.82549 7.03168 3.66221C7.09472 3.53147 7.17538 3.45022 7.29535 3.36924C7.44898 3.31879 7.62752 3.32305 7.76811 3.40632Z" fill="#363636"/>
</g>
<defs>
<clipPath id="clip0_196_190">
<rect width="15" height="15" fill="white"/>
</clipPath>
</defs>
</svg>
