<svg width="17" height="17" viewBox="0 0 17 17" fill="none" xmlns="http://www.w3.org/2000/svg">
<g clip-path="url(#clip0_196_187)">
<path d="M10.9566 1.29496C10.9842 1.31851 11.0117 1.34205 11.04 1.3663C12.1146 2.30424 12.4215 3.53624 12.5172 4.91411C12.5568 5.49871 12.5568 5.49871 12.401 5.69619C12.2187 5.87182 12.0534 5.92263 11.8077 5.91941C11.6249 5.90015 11.4829 5.81846 11.3592 5.684C11.2346 5.4971 11.2112 5.29507 11.1914 5.07532C11.1862 5.02281 11.1809 4.97031 11.1757 4.9178C11.1679 4.83669 11.1601 4.75557 11.1526 4.67443C11.0887 3.93155 11.0887 3.93155 10.8321 3.23942C10.8207 3.21787 10.8093 3.19631 10.7975 3.1741C10.4565 2.54727 9.92096 2.03861 9.23007 1.82621C7.65512 1.41993 5.8818 1.4235 4.28281 1.6602C4.46827 1.74549 4.65416 1.8294 4.84194 1.90948C5.29051 2.10134 5.72206 2.30845 6.14218 2.55668C6.18341 2.5809 6.18341 2.5809 6.22548 2.6056C6.57645 2.81359 6.88316 3.03113 7.17148 3.32036C7.19468 3.34158 7.21787 3.36281 7.24178 3.38469C8.88425 4.91502 8.93221 7.39909 9.01633 9.46946C9.02351 9.67754 9.02793 9.88561 9.03085 10.0938C9.03122 10.1186 9.03158 10.1434 9.03196 10.169C9.04755 11.2853 9.01102 12.4002 8.93124 13.5137C9.4292 13.3881 9.84152 13.1997 10.2262 12.8497C10.2472 12.8313 10.2682 12.813 10.2898 12.7941C10.6619 12.4502 10.9165 11.9708 11.0243 11.4805C11.0329 11.4418 11.0329 11.4418 11.0416 11.4022C11.1029 11.1116 11.1312 10.8188 11.1579 10.5234C11.2289 9.74286 11.2289 9.74286 11.3862 9.55009C11.4088 9.53229 11.4314 9.51448 11.4547 9.49614C11.4773 9.47765 11.4999 9.45916 11.5232 9.44011C11.6896 9.32734 11.8928 9.34558 12.0855 9.36332C12.2654 9.42003 12.3767 9.54704 12.484 9.69535C12.7476 10.4862 12.3919 11.9121 12.0293 12.6392C11.5329 13.5905 10.7198 14.3453 9.6979 14.6923C9.43546 14.7745 9.1644 14.8201 8.89317 14.8628C8.82885 14.8728 8.82885 14.8728 8.76523 14.9082C8.73238 15.0007 8.70253 15.0926 8.67392 15.1863C8.54765 15.5798 8.37347 15.8906 8.10117 16.2032C8.08392 16.224 8.06667 16.2448 8.0489 16.2662C7.76624 16.5809 7.35447 16.7615 6.93906 16.8008C5.4317 16.8516 3.75554 16.023 2.52304 15.2403C2.48925 15.2189 2.48925 15.2189 2.45479 15.1972C1.2778 14.4414 0.558599 13.0379 0.254723 11.7069C0.136412 11.1138 0.108479 10.4996 0.0604323 9.89782C0.0581214 9.86912 0.0558105 9.84043 0.0534296 9.81087C0.0161263 9.33235 -0.00588491 8.85647 -0.0071412 8.37657C-0.00737151 8.3215 -0.00760326 8.26643 -0.00783732 8.21136C-0.00847307 8.03643 -0.00863193 7.8615 -0.0086976 7.68657C-0.00872205 7.65683 -0.00874637 7.6271 -0.00877157 7.59647C-0.00936651 6.70934 0.00478572 5.83017 0.0992126 4.94731C0.107318 4.86266 0.115361 4.77801 0.123337 4.69336C0.255414 3.34804 0.6024 2.19031 1.65976 1.28459C1.83988 1.1398 2.02343 1.01096 2.22421 0.896527C2.25269 0.88022 2.25269 0.88022 2.28173 0.863584C3.11876 0.392369 4.16857 0.295875 5.11288 0.232465C5.13975 0.230592 5.16662 0.22872 5.1943 0.226791C6.99447 0.106874 9.51754 0.0250335 10.9566 1.29496Z" fill="#363636"/>
<path d="M14.5507 4.87381C14.7646 5.04395 14.9531 5.2432 15.1456 5.43664C15.1939 5.48486 15.2422 5.53308 15.2906 5.58127C15.3914 5.68197 15.4921 5.78285 15.5926 5.88386C15.7211 6.01288 15.85 6.14145 15.979 6.26989C16.0787 6.36924 16.1782 6.46882 16.2776 6.56848C16.325 6.61597 16.3725 6.66339 16.4201 6.71072C16.4866 6.77704 16.5529 6.84368 16.6191 6.9104C16.6385 6.92962 16.6579 6.94885 16.6779 6.96865C16.8362 7.12937 16.982 7.29825 17.0212 7.5248C17.0201 7.5822 17.0201 7.5822 17.019 7.64076C17.0191 7.67919 17.0191 7.71763 17.0191 7.75723C16.9796 7.99217 16.7982 8.14726 16.6356 8.30926C16.6126 8.3325 16.5895 8.35574 16.5657 8.37968C16.4898 8.45607 16.4136 8.5322 16.3374 8.60832C16.2844 8.66146 16.2314 8.71462 16.1784 8.76778C16.0675 8.87897 15.9564 8.99003 15.8452 9.10101C15.7028 9.24327 15.5607 9.3859 15.4187 9.52864C15.3095 9.63842 15.1999 9.74797 15.0903 9.85746C15.0379 9.90996 14.9855 9.96254 14.9331 10.0152C14.86 10.0887 14.7866 10.1619 14.7131 10.235C14.6915 10.2568 14.67 10.2786 14.6478 10.3011C14.4801 10.4669 14.3545 10.5347 14.1137 10.5357C13.9229 10.5314 13.7975 10.51 13.6584 10.3708C13.5201 10.217 13.4757 10.1104 13.4725 9.90064C13.4716 9.86687 13.4708 9.8331 13.4699 9.79831C13.4973 9.53906 13.6749 9.38827 13.8516 9.21505C13.878 9.1888 13.9044 9.16255 13.9316 9.13551C14.0156 9.05206 14.0999 8.96896 14.1843 8.88587C14.2415 8.82922 14.2986 8.77254 14.3557 8.71584C14.4954 8.57718 14.6355 8.43882 14.7757 8.30067C14.7528 8.30062 14.73 8.30057 14.7064 8.30052C14.1491 8.29929 13.5918 8.29733 13.0345 8.29456C12.765 8.29324 12.4954 8.29217 12.2259 8.29167C11.991 8.29124 11.756 8.29034 11.5211 8.28889C11.3967 8.28814 11.2724 8.28762 11.148 8.28766C11.009 8.28769 10.8701 8.28668 10.7312 8.28559C10.6695 8.28584 10.6695 8.28584 10.6067 8.2861C10.3844 8.2834 10.2405 8.26982 10.0609 8.13465C9.88395 7.94337 9.84456 7.7958 9.84895 7.53855C9.87326 7.34508 9.97211 7.22884 10.1045 7.0929C10.3434 6.94843 10.6123 6.96245 10.8827 6.96196C10.9245 6.96162 10.9663 6.96129 11.0094 6.96095C11.1233 6.96004 11.2372 6.95954 11.3512 6.95911C11.4705 6.95858 11.5898 6.9577 11.7092 6.95685C11.9348 6.9553 12.1605 6.95408 12.3861 6.95297C12.6431 6.9517 12.9002 6.95006 13.1572 6.94839C13.6856 6.94497 14.2141 6.942 14.7425 6.93934C14.7282 6.92522 14.7138 6.91111 14.6991 6.89656C14.5496 6.74927 14.4004 6.60163 14.2515 6.45378C14.1959 6.39868 14.1402 6.34368 14.0844 6.28877C14.0042 6.20971 13.9242 6.13034 13.8444 6.0509C13.807 6.01431 13.807 6.01431 13.7689 5.97698C13.619 5.8272 13.4965 5.6964 13.4676 5.4784C13.4693 5.25709 13.4728 5.09551 13.6306 4.92666C13.9151 4.65943 14.2401 4.65857 14.5507 4.87381Z" fill="#363636"/>
</g>
<defs>
<clipPath id="clip0_196_187">
<rect width="17" height="17" fill="white"/>
</clipPath>
</defs>
</svg>
