<svg viewBox="0 0 20 20" fill="none" xmlns="http://www.w3.org/2000/svg">
<g clip-path="url(#clip0_113_43)">
<path d="M17.8447 5.55566H2.15577C1.87877 5.55566 1.61311 5.6657 1.41724 5.86157C1.22137 6.05745 1.11133 6.3231 1.11133 6.60011V16.7334C1.11133 17.0104 1.22137 17.2761 1.41724 17.472C1.61311 17.6678 1.87877 17.7779 2.15577 17.7779H17.8447C18.1217 17.7779 18.3873 17.6678 18.5832 17.472C18.7791 17.2761 18.8891 17.0104 18.8891 16.7334V6.60011C18.8891 6.3231 18.7791 6.05745 18.5832 5.86157C18.3873 5.6657 18.1217 5.55566 17.8447 5.55566ZM13.4336 12.1279L8.00577 14.5501C7.92126 14.5881 7.82858 14.6044 7.73618 14.5974C7.64378 14.5904 7.55459 14.5604 7.47674 14.5102C7.39888 14.4599 7.33483 14.391 7.29042 14.3097C7.246 14.2284 7.22263 14.1372 7.22244 14.0446V9.20011C7.22263 9.10745 7.246 9.0163 7.29042 8.93498C7.33483 8.85365 7.39888 8.78473 7.47674 8.73448C7.55459 8.68424 7.64378 8.65426 7.73618 8.64729C7.82858 8.64031 7.92126 8.65656 8.00577 8.69455L13.4336 11.1112C13.5321 11.1547 13.616 11.2259 13.6748 11.3161C13.7336 11.4064 13.765 11.5118 13.765 11.6196C13.765 11.7273 13.7336 11.8327 13.6748 11.923C13.616 12.0132 13.5321 12.0844 13.4336 12.1279Z" fill="#363636"/>
<path d="M16.7445 1.66664C16.7445 1.5193 16.6859 1.37799 16.5817 1.2738C16.4776 1.16962 16.3363 1.11108 16.1889 1.11108H3.96669C3.81935 1.11108 3.67804 1.16962 3.57385 1.2738C3.46966 1.37799 3.41113 1.5193 3.41113 1.66664V2.2222H16.7445V1.66664Z" fill="#363636"/>
<path d="M17.8446 3.88881C17.8446 3.74147 17.7861 3.60016 17.6819 3.49597C17.5777 3.39178 17.4364 3.33325 17.2891 3.33325H2.84462C2.69728 3.33325 2.55597 3.39178 2.45178 3.49597C2.34759 3.60016 2.28906 3.74147 2.28906 3.88881V4.44436H17.8446V3.88881Z" fill="#363636"/>
</g>
<defs>
<clipPath id="clip0_113_43">
<rect width="20" height="20" fill="white"/>
</clipPath>
</defs>
</svg>
