<svg width="15" height="18" viewBox="0 0 15 18" fill="none" xmlns="http://www.w3.org/2000/svg">
<path d="M14.7393 6.46346C14.8092 6.5035 14.8092 6.5035 14.8749 6.60466C15.2208 8.19515 14.823 9.99725 13.9872 11.3594C13.8836 11.5214 13.7726 11.6772 13.6584 11.8315C13.6367 11.8613 13.615 11.8912 13.5926 11.922C12.9111 12.8189 11.9803 13.463 11.028 14.0233C11.0047 14.0373 10.9815 14.0512 10.9575 14.0655C9.9909 14.6412 8.94765 15.0385 7.8716 15.3385C7.84686 15.3455 7.82211 15.3526 7.79662 15.3598C7.6755 15.393 7.56907 15.4088 7.44417 15.4059C7.44495 15.4544 7.44495 15.4544 7.44574 15.5038C7.44754 15.6247 7.44866 15.7456 7.44959 15.8665C7.45008 15.9187 7.45076 15.9708 7.45161 16.0229C7.46211 16.6766 7.46211 16.6766 7.25101 16.9171C7.23549 16.9354 7.21998 16.9537 7.204 16.9725C7.02801 17.1368 6.87656 17.1473 6.64505 17.1416C6.3411 17.1018 6.10272 16.9117 5.86391 16.727C5.75931 16.6475 5.65196 16.5732 5.54333 16.4997C5.33872 16.361 5.13557 16.2201 4.93301 16.0782C4.90256 16.0569 4.87212 16.0356 4.84075 16.0136C4.77703 15.969 4.7133 15.9243 4.64958 15.8797C4.4798 15.7609 4.30978 15.6424 4.13979 15.5239C4.07086 15.4759 4.00194 15.4278 3.93301 15.3797C3.7983 15.2857 3.66352 15.1919 3.5287 15.0981C3.37853 14.9935 3.22864 14.8886 3.07903 14.7832C3.01636 14.7392 2.95347 14.6955 2.8905 14.6519C2.5163 14.3858 2.23528 14.0571 2.15059 13.585C2.12061 13.1137 2.16584 12.7127 2.44085 12.3175C2.61924 12.1142 2.83162 11.9529 3.04861 11.7956C3.10094 11.7573 3.15326 11.7189 3.20555 11.6805C3.23224 11.6609 3.25894 11.6414 3.28644 11.6212C3.41757 11.5245 3.54752 11.4262 3.67742 11.3277C3.70329 11.3082 3.72916 11.2886 3.75581 11.2684C3.80828 11.2287 3.86075 11.1889 3.91322 11.1491C4.04345 11.0505 4.17383 10.952 4.30419 10.8535C4.35625 10.8142 4.40831 10.7749 4.46037 10.7355C4.56448 10.6568 4.6686 10.5782 4.77272 10.4995C4.7985 10.48 4.82429 10.4605 4.85085 10.4404C4.90277 10.4012 4.9547 10.362 5.00662 10.3227C5.1389 10.2228 5.27111 10.1228 5.40321 10.0226C5.55724 9.90588 5.71151 9.78947 5.86596 9.6733C5.88885 9.65604 5.91175 9.63879 5.93533 9.62101C5.99837 9.5736 6.06159 9.52645 6.12489 9.4794C6.14306 9.4657 6.16124 9.452 6.17996 9.43788C6.41935 9.26117 6.62735 9.23578 6.9181 9.26864C7.08599 9.318 7.23519 9.39021 7.32909 9.54684C7.48401 9.94631 7.45174 10.4317 7.44417 10.8535C7.80602 10.8804 8.16639 10.8954 8.52919 10.8957C8.56658 10.8957 8.56658 10.8957 8.60472 10.8958C9.04598 10.8951 9.47491 10.8648 9.91013 10.7861C9.94285 10.7803 9.97558 10.7745 10.0093 10.7686C11.0134 10.586 12.023 10.209 12.7252 9.41459C12.7706 9.36981 12.7706 9.36981 12.8364 9.36981C12.8445 9.35055 12.8527 9.33129 12.8611 9.31145C12.9086 9.22294 12.9652 9.16213 13.0337 9.0895C13.5993 8.45275 13.9885 7.61606 14.1372 6.77116C14.1646 6.62839 14.1737 6.58269 14.2728 6.47399C14.438 6.41647 14.5687 6.41402 14.7393 6.46346Z" fill="#363636"/>
<path d="M8.57003 0.057292C8.79686 0.167286 8.99825 0.31747 9.19908 0.470112C9.33473 0.57234 9.47535 0.666696 9.61574 0.761917C9.78174 0.874791 9.94637 0.989723 10.1111 1.10455C10.1467 1.12936 10.1823 1.15418 10.219 1.17974C10.4773 1.35962 10.7354 1.53963 10.9934 1.7199C11.1387 1.82144 11.2842 1.92276 11.4301 2.02355C11.5042 2.0748 11.5783 2.12612 11.6524 2.17745C11.7048 2.21364 11.7572 2.24972 11.8096 2.28579C12.301 2.62622 12.7145 2.93902 12.8491 3.5633C12.8784 4.05426 12.8401 4.48546 12.5197 4.878C12.308 5.10967 12.0424 5.28506 11.7911 5.46833C11.6327 5.58385 11.4759 5.70149 11.3195 5.81978C11.2936 5.83936 11.2677 5.85895 11.241 5.87912C11.1884 5.91885 11.1359 5.95858 11.0833 5.99832C10.9528 6.09695 10.8222 6.19538 10.6916 6.29383C10.6395 6.33316 10.5873 6.37249 10.5352 6.41182C10.4309 6.49048 10.3266 6.56913 10.2222 6.64779C10.1964 6.66727 10.1706 6.68675 10.144 6.70682C10.092 6.74604 10.0399 6.78526 9.98792 6.82447C9.85541 6.92437 9.72296 7.02435 9.59062 7.12448C9.43631 7.24119 9.28176 7.35756 9.12703 7.47369C9.1041 7.49095 9.08116 7.5082 9.05753 7.52597C8.99438 7.57337 8.93105 7.62049 8.86764 7.66753C8.84943 7.68123 8.83122 7.69493 8.81246 7.70904C8.57264 7.88569 8.36426 7.91107 8.07298 7.87822C7.92618 7.83515 7.79438 7.78737 7.70672 7.65324C7.61963 7.48958 7.58593 7.33775 7.57067 7.15345C7.56692 7.11461 7.56692 7.11461 7.56309 7.07498C7.54008 6.81433 7.54087 6.5553 7.54596 6.29383C7.18953 6.26513 6.83499 6.25198 6.4775 6.2517C6.45167 6.25167 6.42584 6.25165 6.39923 6.25163C5.95173 6.25225 5.51688 6.28121 5.07554 6.36125C5.0428 6.36704 5.01007 6.37282 4.97634 6.37878C3.97153 6.56109 3.02146 6.92604 2.29825 7.68899C2.20985 7.77709 2.20985 7.77709 2.14398 7.77709C2.13582 7.79634 2.12767 7.81559 2.11927 7.83542C2.07165 7.9239 2.01496 7.98469 1.94634 8.0573C1.35524 8.72129 0.955643 9.6021 0.819856 10.4868C0.787977 10.5935 0.755251 10.6218 0.661724 10.6762C0.506064 10.7293 0.379338 10.7253 0.223224 10.6741C0.109313 10.59 0.0951823 10.5074 0.068823 10.3728C0.0525051 10.2614 0.0415053 10.1499 0.0317667 10.0378C0.0290174 10.0064 0.0262681 9.97507 0.0234355 9.94276C-0.0392249 9.18121 0.0250831 8.41844 0.200579 7.67596C0.2063 7.65175 0.212022 7.62754 0.217917 7.60259C0.421116 6.77249 0.81453 5.99403 1.3205 5.31623C1.3422 5.28647 1.3639 5.2567 1.38625 5.22603C2.55786 3.68573 4.50217 2.67653 6.27369 2.0674C6.2984 2.05886 6.32311 2.05031 6.34857 2.04151C6.61727 1.94913 6.88642 1.86566 7.16227 1.79851C7.19732 1.78995 7.19732 1.78995 7.23307 1.78122C7.34143 1.75592 7.43402 1.74294 7.54596 1.74294C7.54519 1.69451 7.54519 1.69451 7.54439 1.6451C7.54259 1.52423 7.54147 1.40335 7.54053 1.28247C7.54004 1.23035 7.53937 1.17824 7.53851 1.12613C7.528 0.472713 7.528 0.472713 7.73948 0.232296C7.75502 0.214002 7.77056 0.195707 7.78657 0.176858C8.00865 -0.0300009 8.29095 -0.0347835 8.57003 0.057292Z" fill="#363636"/>
</svg>
