<svg width="12" height="10" viewBox="0 0 12 10" fill="none" xmlns="http://www.w3.org/2000/svg">
<path d="M10.6765 0.299805H0.698465C0.31381 0.299805 0 0.600179 0 0.969428V8.62227C0 8.99152 0.31381 9.29189 0.698465 9.29189H10.6765C11.0612 9.29189 11.375 8.99152 11.375 8.62227V0.969428C11.375 0.600179 11.0612 0.299805 10.6765 0.299805ZM10.9759 8.62227C10.9759 8.78059 10.8417 8.90925 10.6765 8.90925H0.698465C0.533328 8.90925 0.399123 8.78059 0.399123 8.62227V0.969428C0.399123 0.81111 0.533328 0.682447 0.698465 0.682447H10.6765C10.8417 0.682447 10.9759 0.81111 10.9759 0.969428V8.62227Z" fill="#4F4F4F"/>
<path d="M8.11168 3.84663L4.93916 2.2534C4.7835 2.17544 4.63033 2.13574 4.48316 2.13574C4.06059 2.13574 3.77671 2.45429 3.77671 2.92781V6.71645C3.77671 7.2641 4.10848 7.45829 4.39286 7.45829C4.5555 7.45829 4.72662 7.40042 4.90024 7.28706L8.19051 5.14092C8.46291 4.96299 8.61009 4.7181 8.59512 4.46842C8.57965 4.21971 8.40354 3.99299 8.11168 3.84663ZM7.9655 4.82524L4.67524 6.97138C4.54253 7.05795 4.44823 7.07613 4.39286 7.07613C4.19679 7.07613 4.17583 6.82502 4.17583 6.7174V2.92781C4.17583 2.80489 4.20577 2.51838 4.48266 2.51838C4.56348 2.51838 4.65728 2.54421 4.75356 2.59252L7.92609 4.18575C8.09073 4.26802 8.18851 4.37946 8.1955 4.49138C8.20298 4.60283 8.11867 4.72479 7.9655 4.82524Z" fill="#4F4F4F"/>
</svg>
