<svg width="9" height="8" viewBox="0 0 9 8" fill="none" xmlns="http://www.w3.org/2000/svg">
<g filter="url(#filter0_b_254_136)">
<path d="M8.47125 0H0.52875C0.388517 0 0.254027 0.0720257 0.154867 0.200232C0.0557074 0.328439 0 0.502325 0 0.683636V7.31636C0 7.49768 0.0557074 7.67156 0.154867 7.79977C0.254027 7.92797 0.388517 8 0.52875 8H8.47125C8.61148 8 8.74597 7.92797 8.84513 7.79977C8.94429 7.67156 9 7.49768 9 7.31636V0.683636C9 0.502325 8.94429 0.328439 8.84513 0.200232C8.74597 0.0720257 8.61148 0 8.47125 0ZM6.23812 4.30182L3.49031 5.88727C3.44753 5.91214 3.40061 5.92278 3.35383 5.91821C3.30705 5.91365 3.2619 5.89402 3.22249 5.86114C3.18307 5.82825 3.15065 5.78313 3.12816 5.7299C3.10568 5.67667 3.09385 5.61701 3.09375 5.55636V2.38545C3.09385 2.3248 3.10568 2.26515 3.12816 2.21192C3.15065 2.15868 3.18307 2.11357 3.22249 2.08068C3.2619 2.04779 3.30705 2.02817 3.35383 2.02361C3.40061 2.01904 3.44753 2.02968 3.49031 2.05455L6.23812 3.63636C6.28803 3.66482 6.33047 3.71142 6.36025 3.77049C6.39004 3.82957 6.4059 3.89857 6.4059 3.96909C6.4059 4.03961 6.39004 4.10861 6.36025 4.16769C6.33047 4.22676 6.28803 4.27337 6.23812 4.30182Z" fill="#B8B8B8" fill-opacity="0.28"/>
</g>
<defs>
<filter id="filter0_b_254_136" x="-4" y="-4" width="17" height="16" filterUnits="userSpaceOnUse" color-interpolation-filters="sRGB">
<feFlood flood-opacity="0" result="BackgroundImageFix"/>
<feGaussianBlur in="BackgroundImageFix" stdDeviation="2"/>
<feComposite in2="SourceAlpha" operator="in" result="effect1_backgroundBlur_254_136"/>
<feBlend mode="normal" in="SourceGraphic" in2="effect1_backgroundBlur_254_136" result="shape"/>
</filter>
</defs>
</svg>
