<svg width="21" height="21" viewBox="0 0 21 21" fill="none" xmlns="http://www.w3.org/2000/svg">
<path d="M8.72375 0.848661C8.8468 0.725767 9.01359 0.656738 9.1875 0.656738C9.36141 0.656738 9.5282 0.725767 9.65125 0.848661L12.2762 3.47366C12.3922 3.59806 12.4553 3.7626 12.4523 3.93262C12.4493 4.10263 12.3804 4.26484 12.2602 4.38508C12.1399 4.50532 11.9777 4.57419 11.8077 4.57719C11.6377 4.58019 11.4732 4.51708 11.3488 4.40116L9.84375 2.89616V5.90616H8.53125V2.89616L7.02625 4.40116C6.90185 4.51708 6.73731 4.58019 6.56729 4.57719C6.39728 4.57419 6.23507 4.50532 6.11483 4.38508C5.99459 4.26484 5.92572 4.10263 5.92272 3.93262C5.91972 3.7626 5.98283 3.59806 6.09875 3.47366L8.72375 0.848661ZM8.53125 5.90616V11.1562C8.53125 11.3302 8.60039 11.4971 8.72346 11.6202C8.84653 11.7433 9.01345 11.8124 9.1875 11.8124C9.36155 11.8124 9.52847 11.7433 9.65154 11.6202C9.77461 11.4971 9.84375 11.3302 9.84375 11.1562V5.90616H12.4688C13.1649 5.90616 13.8326 6.18272 14.3249 6.67501C14.8172 7.16729 15.0937 7.83497 15.0938 8.53116V15.0937C15.0937 15.7899 14.8172 16.4575 14.3249 16.9498C13.8326 17.4421 13.1649 17.7187 12.4688 17.7187H5.90625C5.21006 17.7187 4.54238 17.4421 4.05009 16.9498C3.55781 16.4575 3.28125 15.7899 3.28125 15.0937V8.53116C3.28125 7.83497 3.55781 7.16729 4.05009 6.67501C4.54238 6.18272 5.21006 5.90616 5.90625 5.90616H8.53125Z" fill="#363636"/>
<path d="M6.25684 19.0312C6.48723 19.4304 6.81872 19.7619 7.21794 19.9923C7.61716 20.2227 8.07002 20.3439 8.53096 20.3437H15.0935C15.7897 20.3437 16.4573 20.0671 16.9496 19.5749C17.4419 19.0826 17.7185 18.4149 17.7185 17.7187V11.1562C17.7185 10.185 17.1908 9.33621 16.406 8.88208V15.0937C16.406 16.138 15.9911 17.1395 15.2527 17.8779C14.5143 18.6164 13.5128 19.0312 12.4685 19.0312H6.25684Z" fill="#363636"/>
</svg>
