<svg width="11" height="11" viewBox="0 0 11 11" fill="none" xmlns="http://www.w3.org/2000/svg">
<path d="M5.05 1.8999H1.9C1.66131 1.8999 1.43239 1.99472 1.2636 2.16351C1.09482 2.33229 1 2.56121 1 2.7999V9.0999C1 9.3386 1.09482 9.56752 1.2636 9.7363C1.43239 9.90508 1.66131 9.9999 1.9 9.9999H8.2C8.4387 9.9999 8.66761 9.90508 8.8364 9.7363C9.00518 9.56752 9.1 9.3386 9.1 9.0999V5.9499" stroke="#878787" stroke-linecap="round" stroke-linejoin="round"/>
<path d="M8.38436 1.27719C8.56184 1.09971 8.80256 1 9.05356 1C9.30456 1 9.54528 1.09971 9.72276 1.27719C9.90024 1.45468 9.99995 1.69539 9.99995 1.94639C9.99995 2.19739 9.90024 2.43811 9.72276 2.61559L5.48449 6.85387L3.69995 7.3L4.14609 5.51546L8.38436 1.27719Z" stroke="#878787" stroke-linecap="round" stroke-linejoin="round"/>
</svg>
