<svg width="13" height="15" viewBox="0 0 13 15" fill="none" xmlns="http://www.w3.org/2000/svg">
<path d="M12.2188 2.125H9.03125V1.32812C9.03125 0.975884 8.89132 0.638071 8.64225 0.388999C8.39318 0.139927 8.05537 0 7.70312 0H5.04688C4.69463 0 4.35682 0.139927 4.10775 0.388999C3.85868 0.638071 3.71875 0.975884 3.71875 1.32812V2.125H0.53125C0.390354 2.125 0.255228 2.18097 0.1556 2.2806C0.0559709 2.38023 0 2.51535 0 2.65625C0 2.79715 0.0559709 2.93227 0.1556 3.0319C0.255228 3.13153 0.390354 3.1875 0.53125 3.1875H1.0957L1.72656 13.3118C1.77371 14.2033 2.45703 14.875 3.32031 14.875H9.42969C10.2973 14.875 10.967 14.2182 11.0234 13.3145L11.6543 3.1875H12.2188C12.3596 3.1875 12.4948 3.13153 12.5944 3.0319C12.694 2.93227 12.75 2.79715 12.75 2.65625C12.75 2.51535 12.694 2.38023 12.5944 2.2806C12.4948 2.18097 12.3596 2.125 12.2188 2.125ZM4.26893 12.75H4.25C4.11232 12.7501 3.97999 12.6967 3.88089 12.6012C3.78178 12.5056 3.72365 12.3753 3.71875 12.2377L3.45312 4.80018C3.44811 4.65928 3.49926 4.52216 3.59534 4.41898C3.69142 4.3158 3.82455 4.25502 3.96545 4.25C4.10635 4.24498 4.24346 4.29614 4.34664 4.39222C4.44982 4.4883 4.51061 4.62143 4.51562 4.76232L4.78125 12.1998C4.78378 12.2696 4.77253 12.3392 4.74815 12.4046C4.72376 12.47 4.68672 12.53 4.63913 12.5811C4.59155 12.6322 4.53436 12.6734 4.47084 12.7024C4.40732 12.7314 4.3387 12.7476 4.26893 12.75ZM6.90625 12.2188C6.90625 12.3596 6.85028 12.4948 6.75065 12.5944C6.65102 12.694 6.5159 12.75 6.375 12.75C6.2341 12.75 6.09898 12.694 5.99935 12.5944C5.89972 12.4948 5.84375 12.3596 5.84375 12.2188V4.78125C5.84375 4.64035 5.89972 4.50523 5.99935 4.4056C6.09898 4.30597 6.2341 4.25 6.375 4.25C6.5159 4.25 6.65102 4.30597 6.75065 4.4056C6.85028 4.50523 6.90625 4.64035 6.90625 4.78125V12.2188ZM7.96875 2.125H4.78125V1.32812C4.78085 1.29313 4.78745 1.25841 4.80065 1.226C4.81386 1.19359 4.83341 1.16415 4.85816 1.13941C4.8829 1.11466 4.91234 1.09511 4.94475 1.0819C4.97716 1.0687 5.01188 1.0621 5.04688 1.0625H7.70312C7.73812 1.0621 7.77284 1.0687 7.80525 1.0819C7.83766 1.09511 7.8671 1.11466 7.89184 1.13941C7.91659 1.16415 7.93614 1.19359 7.94935 1.226C7.96255 1.25841 7.96915 1.29313 7.96875 1.32812V2.125ZM9.03125 12.2377C9.02635 12.3753 8.96822 12.5056 8.86911 12.6012C8.77001 12.6967 8.63768 12.7501 8.5 12.75H8.48074C8.41099 12.7475 8.34241 12.7313 8.27893 12.7023C8.21544 12.6733 8.15829 12.6321 8.11075 12.581C8.0632 12.5299 8.02619 12.4699 8.00182 12.4045C7.97746 12.3391 7.96622 12.2696 7.96875 12.1998L8.23438 4.76232C8.23686 4.69256 8.25306 4.62397 8.28206 4.56046C8.31105 4.49696 8.35227 4.43979 8.40336 4.39222C8.45445 4.34464 8.5144 4.3076 8.57981 4.2832C8.64522 4.25879 8.71479 4.24751 8.78455 4.25C8.85432 4.25249 8.92291 4.26869 8.98641 4.29768C9.04991 4.32668 9.10708 4.36789 9.15466 4.41898C9.20223 4.47007 9.23928 4.53003 9.26368 4.59543C9.28808 4.66084 9.29936 4.73041 9.29688 4.80018L9.03125 12.2377Z" fill="white"/>
</svg>
