<svg width="15" height="15" viewBox="0 0 15 15" fill="none" xmlns="http://www.w3.org/2000/svg">
<path d="M6.85 2.2998H2.3C1.95522 2.2998 1.62456 2.43677 1.38076 2.68057C1.13696 2.92436 1 3.25502 1 3.5998V12.6998C1 13.0446 1.13696 13.3752 1.38076 13.619C1.62456 13.8628 1.95522 13.9998 2.3 13.9998H11.4C11.7448 13.9998 12.0754 13.8628 12.3192 13.619C12.563 13.3752 12.7 13.0446 12.7 12.6998V8.14981" stroke="#D9D9D9" stroke-opacity="0.47" stroke-linecap="round" stroke-linejoin="round"/>
<path d="M11.6663 1.40039C11.9226 1.14402 12.2703 1 12.6329 1C12.9954 1 13.3431 1.14402 13.5995 1.40039C13.8559 1.65675 13.9999 2.00446 13.9999 2.36701C13.9999 2.72957 13.8559 3.07727 13.5995 3.33364L7.47757 9.45558L4.8999 10.1L5.54432 7.52234L11.6663 1.40039Z" stroke="#D9D9D9" stroke-opacity="0.47" stroke-linecap="round" stroke-linejoin="round"/>
</svg>
