<svg width="11" height="13" viewBox="0 0 11 13" fill="none" xmlns="http://www.w3.org/2000/svg">
<path d="M9.96875 2.4375H7.53125V1.82812C7.53125 1.55876 7.42425 1.30044 7.23378 1.10997C7.04331 0.919503 6.78499 0.8125 6.51562 0.8125H4.48438C4.21501 0.8125 3.95669 0.919503 3.76622 1.10997C3.57575 1.30044 3.46875 1.55876 3.46875 1.82812V2.4375H1.03125C0.923506 2.4375 0.820175 2.4803 0.743988 2.55649C0.667801 2.63267 0.625 2.73601 0.625 2.84375C0.625 2.95149 0.667801 3.05483 0.743988 3.13101C0.820175 3.2072 0.923506 3.25 1.03125 3.25H1.46289L1.94531 10.9921C1.98137 11.6738 2.50391 12.1875 3.16406 12.1875H7.83594C8.49939 12.1875 9.01152 11.6853 9.05469 10.9941L9.53711 3.25H9.96875C10.0765 3.25 10.1798 3.2072 10.256 3.13101C10.3322 3.05483 10.375 2.95149 10.375 2.84375C10.375 2.73601 10.3322 2.63267 10.256 2.55649C10.1798 2.4803 10.0765 2.4375 9.96875 2.4375ZM3.88947 10.5625H3.875C3.76972 10.5626 3.66852 10.5218 3.59274 10.4487C3.51695 10.3756 3.4725 10.2759 3.46875 10.1707L3.26562 4.48322C3.26179 4.37548 3.30091 4.27062 3.37438 4.19172C3.44785 4.11282 3.54966 4.06634 3.6574 4.0625C3.76515 4.05866 3.87 4.09778 3.9489 4.17125C4.0278 4.24473 4.07429 4.34653 4.07812 4.45428L4.28125 10.1418C4.28318 10.1951 4.27458 10.2484 4.25593 10.2984C4.23729 10.3484 4.20896 10.3943 4.17257 10.4334C4.13619 10.4724 4.09246 10.5039 4.04388 10.5261C3.9953 10.5483 3.94283 10.5606 3.88947 10.5625ZM5.90625 10.1562C5.90625 10.264 5.86345 10.3673 5.78726 10.4435C5.71108 10.5197 5.60774 10.5625 5.5 10.5625C5.39226 10.5625 5.28892 10.5197 5.21274 10.4435C5.13655 10.3673 5.09375 10.264 5.09375 10.1562V4.46875C5.09375 4.36101 5.13655 4.25767 5.21274 4.18149C5.28892 4.1053 5.39226 4.0625 5.5 4.0625C5.60774 4.0625 5.71108 4.1053 5.78726 4.18149C5.86345 4.25767 5.90625 4.36101 5.90625 4.46875V10.1562ZM6.71875 2.4375H4.28125V1.82812C4.28094 1.80137 4.28599 1.77481 4.29609 1.75003C4.30619 1.72525 4.32114 1.70273 4.34006 1.68381C4.35898 1.66489 4.3815 1.64994 4.40628 1.63984C4.43106 1.62974 4.45762 1.62469 4.48438 1.625H6.51562C6.54238 1.62469 6.56894 1.62974 6.59372 1.63984C6.6185 1.64994 6.64102 1.66489 6.65994 1.68381C6.67886 1.70273 6.69381 1.72525 6.70391 1.75003C6.71401 1.77481 6.71906 1.80137 6.71875 1.82812V2.4375ZM7.53125 10.1707C7.5275 10.2759 7.48305 10.3756 7.40726 10.4487C7.33148 10.5218 7.23028 10.5626 7.125 10.5625H7.11027C7.05694 10.5606 7.00449 10.5482 6.95595 10.526C6.9074 10.5039 6.8637 10.4723 6.82734 10.4333C6.79098 10.3942 6.76267 10.3483 6.74404 10.2983C6.72541 10.2483 6.71681 10.1951 6.71875 10.1418L6.92188 4.45428C6.92378 4.40093 6.93617 4.34847 6.95834 4.29991C6.98051 4.25135 7.01203 4.20763 7.0511 4.17125C7.09016 4.13487 7.13602 4.10655 7.18603 4.08789C7.23605 4.06923 7.28925 4.0606 7.3426 4.0625C7.39595 4.0644 7.4484 4.07679 7.49696 4.09896C7.54552 4.12113 7.58924 4.15265 7.62562 4.19172C7.662 4.23079 7.69033 4.27664 7.70899 4.32666C7.72765 4.37667 7.73628 4.42987 7.73438 4.48322L7.53125 10.1707Z" fill="#BCBCBC" fill-opacity="0.69"/>
</svg>
